<!-- icon666.com - MILLIONS vector ICONS FREE --><svg id="Capa_1" fill='#ffffff' enable-background="new 0 0 512.001 512.001" viewBox="0 0 512.001 512.001" xmlns="http://www.w3.org/2000/svg"><g><path d="m493.943 12.882c-7.4-1.652-14.846.519-20.222 5.187-1.76-1.875-3.689-3.597-5.797-5.144-15.998-11.738-37.864-10.486-54.018 1.535-3.04 2.241-7.005 5.914-10.699 10.759-12.975 17.619-17.453 28.255-15.975 37.934 1.262 8.26 6.896 14.42 14.332 20.44l-8.258 32.011c-6.519-.146-16.15 1.145-23.829 3.841-11.749 4.319-21.346 12.834-27.024 23.977l-27.104 53.195c-1.88 3.69-.413 8.207 3.278 10.087l7.103 3.619-7.412 33.476-146.679 20.758c-12.652 1.791-23.689 9.094-30.284 20.037l-30.612 50.798c-2.138 3.548-.995 8.157 2.553 10.295 1.211.73 2.546 1.078 3.864 1.077 2.543 0 5.023-1.293 6.431-3.63l30.612-50.799c4.254-7.06 11.375-11.772 19.538-12.927l150.291-21.269 42.188 11.56-.035 16.828c-.031 15.007-12.266 27.217-27.273 27.217h-34.038c-4.142 0-7.5 3.358-7.5 7.5s3.358 7.5 7.5 7.5h119.774v34.842h-185.787c.44-4.353.206-30.194.259-34.842h30.901c4.142 0 7.5-3.358 7.5-7.5s-3.358-7.5-7.5-7.5h-87.047c-3.626 0-6.732 2.594-7.379 6.162l-2.68 14.775c-2.179 12.01-7.792 23.019-16.233 31.836l-61.761 64.507-17.085-11.963 27.629-45.849c2.138-3.548.995-8.157-2.553-10.295-3.549-2.139-8.157-.995-10.295 2.553l-27.097 44.969-14.783-10.351c-6.712-4.7-14.853-6.505-22.926-5.083-8.071 1.423-15.105 5.904-19.806 12.618l-6.648 9.495c-1.141 1.629-1.588 3.645-1.243 5.604.346 1.959 1.455 3.701 3.084 4.841l58.949 41.277c3.246 2.273 7.028 3.458 10.909 3.458 1.114 0 2.236-.098 3.356-.295 5.022-.885 9.398-3.674 12.323-7.851l12.967-18.519 63.816-66.654v78.498h-19.736c-16.918 0-30.682 13.764-30.682 30.683v11.591c0 4.142 3.358 7.5 7.5 7.5h71.963c10.527 0 19.091-8.564 19.091-19.091v-22.184l14.457-53.305v87.08c0 4.142 3.358 7.5 7.5 7.5h34.773c4.142 0 7.5-3.358 7.5-7.5v-42.465c0-4.142-3.358-7.5-7.5-7.5s-7.5 3.358-7.5 7.5v34.965h-19.773v-113.664h19.773v43.718c0 4.142 3.358 7.5 7.5 7.5s7.5-3.358 7.5-7.5v-43.718h146.76v121.162c0 4.142 3.358 7.5 7.5 7.5h34.773c4.142 0 7.5-3.358 7.5-7.5v-280.423c0-4.142-3.358-7.5-7.5-7.5s-7.5 3.358-7.5 7.5v272.923h-19.773c0-91.799 0-237.889 0-330.059 2.365-1.257 18.234-9.672 19.773-10.492v32.394c0 4.142 3.358 7.5 7.5 7.5s7.5-3.358 7.5-7.5v-40.353l7.141-3.789c9.006-4.779 15.396-13.625 17.091-23.663l13.023-77.07c2.048-12.093-5.742-23.661-17.729-26.335zm-417.494 442.665c-.627.895-1.565 1.493-2.641 1.683-1.074.191-2.161-.051-3.057-.678l-52.806-36.975 2.347-3.351c2.403-3.431 5.998-5.722 10.123-6.449 4.125-.73 8.287.196 11.718 2.598l43.311 30.326zm122.207 32.611c0 2.256-1.835 4.091-4.091 4.091h-64.463v-4.091c0-8.647 7.035-15.683 15.682-15.683h52.873v15.683zm1.764-30.683h-19.9v-98.88c4.315-7.816 7.266-20.164 8.717-29.85h34.884v26.902c0 9.583-1.272 19.13-3.78 28.377zm258.632-432.456c2.731 2.004 5.012 4.459 6.82 7.303l-6.288 25.782c-6.634-13.913-16.095-26.317-27.854-36.428 9.23-3.354 19.407-2.464 27.322 3.343zm-43.767 9.094c1.016-1.38 2.109-2.666 3.267-3.857 16.012 12.547 27.629 29.787 33.211 49.381-10.514 5.756-23.068 5.481-32.113-1.154-10.442-7.661-16.837-12.667-17.59-17.595-.771-5.049 3.307-13.307 13.225-26.775zm-.674 58.952c6.559 3.77 13.984 5.646 21.529 5.646 4.709 0 9.461-.737 14.075-2.186l-.269 1.105c-9.624 4.92-30.299 15.488-39.73 20.309-.632-.168-1.266-.319-1.9-.469zm-7.792 69.563c-6.11 3.283-13.017 1.5-16.063-4.148-1.516-2.811-1.848-6.038-.933-9.084.925-3.082 3.009-5.632 5.87-7.188l38.169-19.511 10.261 20.138zm-51.001-12.397c3.943-7.739 10.603-13.66 18.758-16.68 3.54-1.208 7.15-2.042 10.788-2.511-4.734 3.474-8.197 8.346-9.907 14.042-2.068 6.889-1.324 14.176 2.097 20.519 4.734 8.779 13.604 13.673 22.995 13.673 4.456 0 9.03-1.102 13.333-3.414l10.48-5.561c-.683 7.103-2.68 14.082-5.916 20.435l-20.224 39.691-66.104-33.682zm-22.436 94.919 6.154-27.792 39.493 20.123-9.163 17.665zm37.782 68.595c6.225-7.348 9.998-16.835 10.02-27.186l.044-20.74 11.167-21.528 5.701 2.905c1.09.556 2.253.819 3.399.819 2.73 0 5.364-1.497 6.688-4.097l16.464-32.312v102.139zm125.722-277.026-13.023 77.07c-.925 5.475-4.414 10.301-9.332 12.911l-17.155 9.103-10.156-19.933 12.613-6.447c1.942-.993 3.356-2.782 3.873-4.901l17.321-71.026c1.036-4.25 5.364-6.931 9.651-5.973 4.194.934 6.921 4.974 6.208 9.196z"></path></g></svg>