<!-- icon666.com - MILLIONS vector ICONS FREE --><svg fill='#ffffff'  clip-rule="evenodd" fill-rule="evenodd" image-rendering="optimizeQuality" shape-rendering="geometricPrecision" text-rendering="geometricPrecision" viewBox="0 0 1.70666 1.70666" xmlns="http://www.w3.org/2000/svg"><g id="Layer_x0020_1"><g id="_281449152"><g><path id="_281451840" d="m.772299 1.62917c-.00501181 0-.0100551-.00190551-.0138701-.00574016l-.720701-.720705c-.00767323-.00766929-.00767323-.0200669 0-.0277283.00766929-.00765748.0200669-.00766929.0277244 0l.720705.720728c.00766929.0076378.00766929.0200354 0 .0277047-.00382283.00381102-.00883465.00574016-.0138583.00574016z"></path></g><g><g><g><g><g><g><g><g><path id="_281452392" d="m.423984.85613c-.233768 0-.423984-.190217-.423984-.423988 0-.233795.190217-.423988.423984-.423988.233772 0 .423988.190185.423988.423988-.00001181.233803-.190193.423988-.423988.423988zm0-.808768c-.212146 0-.384776.172602-.384776.38478 0 .212146.172598.384776.384776.384776.212181 0 .38478-.172598.38478-.384776 0-.212146-.172598-.38478-.38478-.38478z"></path></g><g><g><path id="_281452200" d="m.289114.124638c-.00772441 0-.0150118-.00455512-.0181299-.0121378l-.0192835-.0467244c-.00411811-.01.00063386-.0214724.0106654-.0256024.0100039-.00411811.0214528.00062992.0256024.0106339l.0192835.0467244c.00411811.01-.00062992.0214724-.0106654.0256024-.00246063.00101181-.0049685.00150394-.00747244.00150394z"></path></g><g><path id="_281452488" d="m.578161.825602c-.00772441 0-.0150118-.00455512-.018126-.0121378l-.0192835-.0467244c-.00415354-.0100354.00062992-.0214724.0106299-.0256024.0100354-.00411811.0214764.00061024.025626.0106339l.019248.0467244c.00415354.0100354-.00062992.0214724-.0106299.0256024-.00244094.00101181-.00498031.00150394-.00746457.00150394z"></path></g></g><g><g><path id="_281452176" d="m.0972874.315835c-.00250787 0-.00507874-.00049213-.00752756-.00152756l-.0466732-.0194016c-.01-.00418504-.0147283-.015622-.0105472-.025622.00415354-.0100039.015622-.0147323.025626-.0105787l.0466693.0194213c.0100039.00415354.0147283.015626.0105472.025626-.0031063.00755906-.0104055.0120827-.0180945.0120827z"></path></g><g><path id="_281452440" d="m.797346.607106c-.00250787 0-.00507874-.00049213-.00752756-.00152756l-.0466732-.0194252c-.01-.00414961-.0147283-.015622-.0105787-.025622.00418504-.01.0156575-.0147283.0256575-.0105787l.0466378.0194252c.0100354.00414961.0147638.015622.0105787.025622-.00312598.00755118-.0104252.0121063-.0180945.0121063z"></path></g></g><g><g><path id="_281452056" d="m.0501575.605929c-.00769291 0-.0150118-.00458661-.0181299-.0121378-.00411811-.01.00063386-.0214724.0106654-.0256024l.0467283-.019248c.01-.00411811.0214488.00062992.0256024.0106654.00414961.0100315-.00063386.0214724-.0106339.0256024l-.0467283.019248c-.00249213.00098032-.005.00147244-.00750394.00147244z"></path></g><g><path id="_281451864" d="m.75111.316866c-.00772441 0-.0150118-.00458268-.0181299-.0121339-.00414961-.0100354.00063386-.0214724.0106339-.0256024l.0467244-.019252c.0100039-.00411811.0214528.00063386.0256024.0106693.00415354.0100315-.00062992.0214724-.0106299.0255984l-.0467283.019252c-.00244882.00098032-.00498819.0014685-.00747244.0014685z"></path></g></g><g><g><path id="_281451600" d="m.268642.82511c-.00250394 0-.0050748-.00048819-.00752756-.00152362-.01-.00418504-.0147283-.015622-.0105433-.025622l.0194016-.0466732c.00418504-.01.0156535-.0147283.0256575-.0105787.01.00418504.0147283.0156575.0105433.0256575l-.0194252.0466693c-.0031378.00751969-.010437.0120709-.0181063.0120709z"></path></g><g><path id="_281451456" d="m.559894.125075c-.00250787 0-.00507874-.00049213-.00752756-.00152756-.0100039-.00414961-.0147323-.015622-.0105472-.025622l.0194016-.0466732c.00418504-.01.0156575-.0147283.0256575-.0105787.01.00415354.0147283.015622.0105472.025626l-.0194252.0466693c-.00311811.00755118-.0104173.0121063-.0181063.0121063z"></path></g></g><g><path id="_281451648" d="m.191654.219417c-.00501181 0-.0100354-.00190551-.0138386-.00574016l-.0536102-.0536102c-.00766929-.0076378-.00766929-.0200669 0-.0277047s.0200669-.00766929.0277283 0l.0536102.0536102c.00766929.00766929.00766929.0200669 0 .0277244-.00385827.00381496-.00884646.00572047-.0138898.00572047z"></path></g><g><path id="_281451408" d="m.709929.737685c-.00501181 0-.0100354-.00190551-.0138346-.00574016l-.0536102-.0536142c-.00767323-.00766929-.00767323-.0200669 0-.0277047.00766929-.00763386.0200669-.00766929.0277244 0l.0535906.0536142c.00766929.00766929.00766929.0200669 0 .0277047-.00384646.00383465-.00885827.00574016-.0138701.00574016z"></path></g><g><path id="_281451360" d="m.0954449.45174h-.0758465c-.0108071 0-.0195984-.00875984-.0195984-.0195984 0-.0108386.00879134-.0195984.0195984-.0195984h.0758465c.0108071 0 .0195984.00879134.0195984.0195984 0 .0108071-.00879134.0195984-.0195984.0195984z"></path></g><g><path id="_281451696" d="m.828362.45174h-.0758031c-.0108386 0-.0195984-.00875984-.0195984-.0195984 0-.0108386.00875984-.0195984.0195984-.0195984h.0758031c.0108386 0 .0196299.00879134.0196299.0195984 0 .0108071-.00879134.0195984-.0196299.0195984z"></path></g><g><path id="_281451264" d="m.423984.123201c-.0108386 0-.0195984-.00875984-.0195984-.0196024v-.0758346c0-.0108071.00875984-.0195984.0195984-.0195984.0108071 0 .0195984.00875984.0195984.0195984v.0758346c0 .0108071-.00879134.0196024-.0195984.0196024z"></path></g><g><path id="_281450232" d="m.423984.85613c-.0108386 0-.0195984-.00879528-.0195984-.0196024v-.0758346c0-.0108386.00875984-.0195984.0195984-.0195984.0108071 0 .0195984.00875984.0195984.0195984v.0758346c0 .0108307-.00879134.0196024-.0195984.0196024z"></path></g><g><path id="_281450208" d="m.656307.219417c-.00501181 0-.0100354-.00190551-.0138346-.00574016-.00766929-.00766929-.00766929-.0200669 0-.0277283l.0536102-.0536102c.00766929-.00766929.0200354-.00766929.0277047 0 .00766929.00766929.00766929.0200669 0 .0277047l-.0535906.0536102c-.00382283.00385827-.00886614.00576378-.0138898.00576378z"></path></g><g><path id="_281450712" d="m.138043.737685c-.00501181 0-.0100591-.00190551-.0138701-.00574016-.00766929-.0076378-.00766929-.0200709 0-.0277047l.0536102-.0536142c.00766929-.00766929.0200669-.00766929.0277283 0 .00765748.00767323.00766929.0200709 0 .0277047l-.0536142.0536142c-.00382283.00383465-.00883465.00574016-.0138543.00574016z"></path></g><g><path id="_281450760" d="m.423984.45174c-.0018189 0-.0036063-.00022835-.00538976-.00075197l-.176925-.0505591c-.0104055-.00297638-.0164291-.0138031-.0134882-.0242205.00299606-.0104016.0138346-.0164291.0242402-.0134646l.164646.0470433.118217-.141823c.00691732-.00833465.019315-.0094252.0276142-.00250787.00830315.00691732.0094252.0192835.00250787.0276181l-.126362.15165c-.00379134.00451181-.00932677.00701575-.0150591.00701575z"></path></g></g></g></g></g></g></g><g><path id="_281450496" d="m1.32562.334134c-.0756378 0-.137201-.0615394-.137201-.137201 0-.0756614.0615748-.137205.137201-.137205.0756614 0 .137236.0615433.137236.137205 0 .0756614-.0615748.137201-.137236.137201zm0-.235209c-.0540118 0-.0979724.0439606-.0979724.0980079 0 .0540472.0439606.0980039.0979724.0980039.0540472 0 .0980079-.0439567.0980079-.0980039s-.0439724-.0980079-.0980079-.0980079z"></path></g><g><path id="_281450928" d="m.228008 1.63339c-.0571299 0-.103626-.0464646-.103626-.103594 0-.0571299.0464646-.103626.103626-.103626.0570984 0 .103594.0464646.103594.103626-.00003543.0571299-.0464961.103594-.103594.103594zm0-.167992c-.0355157 0-.0643976.0288819-.0643976.0643976 0 .0354843.0288819.0643976.0643976.0643976.0354803 0 .0643976-.0289134.0643976-.0643976 0-.0355157-.0289173-.0643976-.0643976-.0643976z"></path></g></g><g><path id="_281449896" d="m1.57616.88074c-.00501181 0-.0100354-.00190945-.0138386-.00574409l-.748429-.748429c-.00766929-.00766929-.00766929-.0200709 0-.0277283.00766929-.0076378.0200354-.0076378.0277047 0l.748465.748433c.00766929.00766929.00766929.0200669 0 .0277244-.00383858.00381496-.00888189.00574409-.0139016.00574409z"></path></g><g><path id="_281449776" d="m1.68706 1.26881c-.00501181 0-.0100354-.00190551-.0138386-.00574016l-.538331-.538303c-.0076378-.00766929-.0076378-.0200669 0-.0277047.00766929-.00766929.0200669-.00766929.0277244 0l.538299.538303c.00766929.00766929.00766929.0200669 0 .0277047-.00383465.00381102-.00884646.00574016-.0138543.00574016z"></path></g><g><path id="_281449584" d="m1.07721 1.54601c-.00501181 0-.0100551-.00190551-.0138346-.00574016l-.360362-.360362c-.00766929-.00766929-.00766929-.0200354 0-.0277047.00766929-.00766929.0200669-.00766929.0277244 0l.360343.360343c.00766929.00766929.00766929.0200669 0 .0277244-.00383465.00383465-.00885827.00574016-.0138701.00574016z"></path></g><g><path id="_281449752" d="m1.0387 1.6985c-.00500787 0-.0100315-.00190551-.0138346-.00574016l-.501783-.501752c-.00766929-.00766929-.00766929-.0200669 0-.0277244.00766929-.00765748.0200709-.00766929.0277283 0l.501783.501783c.00766929.00766929.00766929.0200669 0 .0277047-.00385827.00382283-.00890157.00572835-.0138937.00572835z"></path></g><g><path id="_281449728" d="m1.67105 1.49494c-.00501181 0-.0100551-.00190551-.0138386-.00574016l-.422339-.422311c-.00766929-.00766929-.00766929-.0200669 0-.0277047.00766929-.00766929.0200669-.00766929.0277244 0l.422307.422311c.00767323.00766929.00767323.0200354 0 .0277047-.00382283.00379921-.00883465.00574016-.0138543.00574016z"></path></g><g><path id="_281449512" d="m1.41699 1.6923c-.00501181 0-.0100551-.00190551-.0138346-.00574016l-.529965-.529945c-.00766929-.00767323-.00766929-.0200709 0-.0277283.00766929-.00765748.0200669-.00766929.0277244 0l.529945.529969c.00766929.00766929.00766929.0200354 0 .0277047-.00386614.00383465-.00887795.00574016-.0138701.00574016z"></path></g><g><path id="_281449224" d="m1.60784 1.68463c-.00501181 0-.0100591-.00190551-.0138386-.00574016l-.776154-.776161c-.00767323-.00766929-.00767323-.0200669 0-.0277244.00766929-.00765748.0200315-.00766929.0277008 0l.776157.776157c.00766929.00766929.00766929.0200669 0 .0277283-.00386614.00381102-.00885827.00574016-.0138661.00574016z"></path></g></g></g></svg>